<?xml version="1.0" encoding="UTF-8"?><svg id="Layer_1" xmlns="http://www.w3.org/2000/svg" viewBox="0 0 70.08 436.52"><defs><style>.cls-1{fill:#1d1d1b;}</style></defs><path class="cls-1" d="m26.9,290.24c0,3.33,2.4,5.49,6.12,5.49h8.06v.02c.35.51.65,1.12.9,1.76l.84-.29c-.05-1.1-.09-3.21-.09-4.47,0-1.43.03-3.73.09-5.65l-1.98-.31-.12.08.97,6.24h-8.77c-1.72,0-3.02-.09-3.83-.51-.76-.4-1.08-1.08-1.08-2.29,0-.47.05-.94.14-1.34v-.03s.04,0,.04,0l3.21-.93v-.86c-1.14-.08-2.78-.39-3.69-.71l-.23.08c-.39,1.14-.58,2.33-.58,3.72Z"/><path class="cls-1" d="m26.9,310.48c0,3.7,2.76,5.75,7.99,5.91l6.26.2v.02c.37.49.65,1.15.84,1.63l.84-.29c-.04-.78-.07-1.63-.07-2.58,0-.83.02-1.51.07-2.42l-.84-.25c-.21.57-.61,1.42-.98,1.99v.02s-.04,0-.04,0c-1.31.07-4.79.2-6.12.2h-.61c-4.97,0-6.01-2.19-6.01-4.03,0-2.79,1.89-4.03,6.13-4.03h6.78v.03c.33.57.61,1.32.83,1.92l.03.07.84-.29c-.04-.89-.07-2.16-.07-3.05,0-.98.02-1.81.07-2.69l-.84-.25c-.11.3-.43,1.11-.82,1.63v.02h-7.15c-4.92,0-7.11,1.91-7.11,6.21Z"/><path class="cls-1" d="m35.13,331.74v-.05h.2v.04c.59,2.18,1.99,3.43,3.83,3.43,2.6,0,3.66-1.57,3.66-5.42v-6.47l-.84-.25c-.21.55-.48,1.07-.8,1.61v.02h-12.36v-.02c-.34-.54-.6-1.06-.81-1.61l-.84.25v5.95c0,4.02,1.81,6.52,4.72,6.52,1.95,0,3.13-1.46,3.24-4Zm-6.84-2.16v-2.32h13.42v2.28c0,2.17-.9,3.09-3.02,3.09-1.98,0-2.79-1.24-3.13-2.29v-.02s0-2.43,0-2.43h-.98v2c0,2.2-1.03,3.27-3.16,3.27s-3.13-1.11-3.13-3.58Z"/><path class="cls-1" d="m27.24,344.52c0,.96-.02,1.79-.07,2.69l.84.25c.14-.35.47-1.11.8-1.61v-.02h12.36v.02c.34.49.67,1.26.81,1.61l.84-.25c-.05-.9-.07-1.73-.07-2.69s.02-1.81.07-2.69l-.84-.25c-.14.35-.47,1.11-.8,1.61v.02h-12.36v-.02c-.34-.5-.67-1.27-.81-1.61l-.84.25c.05.87.07,1.7.07,2.69Z"/><path class="cls-1" d="m27.31,359.71c0,1.87-.04,3.85-.11,5.89l.18.09c.92-.1,2-.16,3.21-.16h.76v-.82l-2.95-1.37v-5.06h12.77v.02c.37.58.66,1.24.81,1.61l.84-.25c-.05-.9-.07-1.73-.07-2.69s.02-1.81.07-2.69l-.84-.25c-.17.42-.5,1.15-.82,1.61v.02h-12.31v-.02c-.39-.55-.69-1.23-.84-1.61l-.84.25c.09,1.54.13,3.31.13,5.41Z"/><path class="cls-1" d="m27.31,376.65c0,1.29-.02,3.37-.11,5.92l.19.11c.94-.12,1.8-.18,2.87-.18.41,0,.72,0,1.1.02v-.84l-2.9-1.35v-5.1h6.02v3.34h-.02c-.85.6-1.49.95-2.2,1.24l.2.79c.99-.07,1.71-.11,2.46-.11s1.52.04,2.46.11l.18-.8c-.59-.28-1.12-.6-2.04-1.25h-.02v-3.33h6.06v5.1h-.03s-2.87,1.33-2.87,1.33v.84c.32-.02.59-.02.94-.02,1.02,0,1.96.06,3.05.2l.19-.13c-.09-1.91-.13-3.89-.13-5.89,0-2.1.04-3.87.13-5.41l-.84-.25c-.21.57-.48,1.1-.85,1.61l-.02.02h-12.27v-.02c-.44-.61-.66-1.13-.84-1.61l-.84.25c.09,1.54.13,3.31.13,5.41Z"/><path class="cls-1" d="m27.31,394.24c0,1.29-.02,3.37-.11,5.92l.19.11c.94-.12,1.8-.18,2.87-.18.41,0,.72,0,1.1.02v-.84l-2.9-1.35v-5.1h6.02v3.34h-.02c-.85.6-1.49.95-2.2,1.24l.2.79c.95-.07,1.7-.11,2.46-.11s1.53.04,2.46.11l.18-.8c-.59-.28-1.12-.6-2.04-1.25h-.02v-3.33h6.06v5.1h-.03s-2.87,1.33-2.87,1.33v.84c.32-.02.59-.02.94-.02,1.02,0,1.96.06,3.05.2l.19-.13c-.09-1.91-.13-3.89-.13-5.89,0-2.1.04-3.87.13-5.41l-.84-.25c-.21.57-.48,1.1-.85,1.61l-.02.02h-12.27v-.02c-.44-.61-.66-1.13-.84-1.61l-.84.25c.09,1.54.13,3.31.13,5.41Z"/><path class="cls-1" d="m42.67,413.12c0-1.44.07-5.01.16-7.3l-.15-.17c-.98.12-2.07.18-3.31.18-.41,0-.8,0-1.21-.02v.84l3.4,1.46v3.71h-12.73v-.02c-.36-.55-.66-1.21-.81-1.59l-.84.25c.04.86.07,1.73.07,2.73,0,.91-.02,1.77-.07,2.62l.84.25c.25-.57.51-1.11.79-1.61v-.03h12.74v3.75h-.03s-3.37,1.44-3.37,1.44v.84c.41-.02.8-.02,1.21-.02,1.24,0,2.33.06,3.31.18l.15-.17c-.09-2.28-.16-5.87-.16-7.32Z"/><path class="cls-1" d="m22.84,269.45l-.97,1.5h-3.91v-.04c.28-.23.58-.47.9-.72.54-.42,1.15-.9,1.75-1.43,1.58-1.4,2.64-2.65,2.64-4.15s-1.22-2.44-3.11-2.44c-1.09,0-2.34.32-3.19.8h-.02s-.07.23-.07.23v.02c.18.5.34,1.41.41,2.06v.04h.68l.74-2.18c.18-.06.4-.12.7-.12,1.13,0,1.86.7,1.86,1.79,0,1.37-.99,2.58-1.96,3.59-1.01,1.07-2.06,1.98-2.76,2.55l-.03.02.49,1.62h.04c.6-.06,1.63-.09,2.98-.09,1.67,0,2.27.03,2.86.1h.02s.21-.12.21-.12v-.03c.03-.6.21-1.86.41-2.81v-.05s-.65-.14-.65-.14h-.03Z"/><path class="cls-1" d="m30.21,262.16c-2.5,0-3.99,1.99-3.99,5.33,0,3.59,1.29,5.27,4.05,5.27,2.5,0,3.99-1.99,3.99-5.33,0-3.59-1.29-5.27-4.05-5.27Zm.25,9.73c-1.76,0-2.36-1.34-2.36-5.33,0-2.6.5-3.52,1.92-3.52,1.81,0,2.36,1.24,2.36,5.31,0,2.57-.52,3.53-1.92,3.53Z"/><path class="cls-1" d="m42.74,269.45l-.97,1.5h-3.91v-.04c.28-.23.58-.47.9-.72.54-.42,1.15-.9,1.75-1.43,1.58-1.4,2.64-2.65,2.64-4.15s-1.22-2.44-3.11-2.44c-1.09,0-2.34.32-3.19.8h-.02s-.07.23-.07.23v.02c.18.5.34,1.41.41,2.06v.04h.68l.74-2.18c.18-.06.4-.12.7-.12,1.13,0,1.86.7,1.86,1.79,0,1.37-.99,2.58-1.96,3.59-1.01,1.07-2.06,1.98-2.76,2.55l-.03.02.49,1.62h.04c.6-.06,1.63-.09,2.98-.09,1.67,0,2.27.03,2.86.1h.02s.21-.12.21-.12v-.03c.03-.6.21-1.86.41-2.81v-.05s-.65-.14-.65-.14h-.03Z"/><path class="cls-1" d="m52.66,267.48l-.38.74h-.48v-5.89h-2.25l-.02.02c-1.27,1.79-2.58,3.88-3.77,6.04v.02s.5,1.24.5,1.24h3.93v1.82c-.38.27-.64.39-.87.5l-.04.02.2.59h.04c.53-.03.85-.05,1.46-.05.57,0,.95.01,1.52.04h.04s.24-.59.24-.59l-.05-.02c-.28-.11-.55-.25-.92-.57v-1.75h1.27l.13-.13v-.02c.02-.68.06-1.4.13-1.97v-.06s-.67,0-.67,0Zm-2.47-4.16v4.9h-3.14c.8-1.45,2.16-3.48,3.13-4.9h.01Z"/><path class="cls-1" d="m21.32,179.7v-9.04l-.36-.07h-.01s-3.72,1.38-3.72,1.38h-.03v.76l2.29-.43v7.43c-.83.3-1.73.48-2.34.58h-.06s.19.67.19.67v.04s.05,0,.05,0c.87-.06,2.23-.06,3.13-.06.97,0,2.29,0,3.17.06h.04s.24-.7.24-.7h-.06c-1.01-.12-1.86-.32-2.52-.61Z"/><path class="cls-1" d="m32.53,177.92l-.97,1.5h-3.91v-.04c.28-.23.58-.46.9-.71.54-.42,1.15-.9,1.75-1.43,1.58-1.4,2.64-2.65,2.64-4.15s-1.22-2.44-3.11-2.44c-1.09,0-2.34.32-3.19.8h-.02s-.07.23-.07.23v.02c.18.5.34,1.41.41,2.06v.04h.68l.74-2.18c.18-.06.4-.12.7-.12,1.13,0,1.86.7,1.86,1.79,0,1.37-.99,2.58-1.96,3.59-1.01,1.07-2.06,1.98-2.76,2.55l-.03.02.49,1.62h.04c.6-.06,1.63-.09,2.98-.09,1.67,0,2.27.03,2.86.1h.02s.21-.12.21-.12v-.03c.03-.6.21-1.86.41-2.81v-.05s-.65-.14-.65-.14h-.03Z"/><path class="cls-1" d="m43.15,170.06l-.52.75c-.91.04-1.64.06-2.49.06-.67,0-1.74,0-3.36-.09h-.02s-.18.16-.18.16v.03c.08.81.1,2.28.1,3.07v.05h.68l.65-1.64h3.61c-1.69,3.07-2.88,5.7-3.86,8.5l-.02.05.85.17h.04s.01-.03.01-.03c1.24-3.06,2.91-5.99,5.03-9.44l.21-1.28v-.04s-.7-.31-.7-.31l-.04-.02Z"/><path class="cls-1" d="m52.02,175.91l-.38.74h-.48v-5.89h-2.25l-.02.02c-1.27,1.79-2.58,3.88-3.77,6.04v.02s.5,1.24.5,1.24h3.93v1.82c-.38.27-.64.39-.87.5l-.04.02.2.59h.04c.53-.03.85-.05,1.46-.05.57,0,.95.01,1.52.04h.04s.24-.59.24-.59l-.05-.02c-.28-.11-.55-.25-.92-.57v-1.75h1.27l.13-.13v-.02c.02-.68.06-1.4.13-1.97v-.06s-.67,0-.67,0Zm-2.47-4.16v4.9h-3.14c.8-1.45,2.16-3.48,3.13-4.9h.01Z"/><path class="cls-1" d="m27.31,21.25c0,1.87-.04,3.85-.11,5.89l.18.09c.92-.1,2-.16,3.21-.16h.76v-.82l-2.95-1.37v-5.06h12.77v.02c.37.58.66,1.24.81,1.61l.84-.25c-.05-.9-.07-1.73-.07-2.69s.02-1.81.07-2.69l-.84-.25c-.17.42-.49,1.15-.82,1.61v.02h-12.31v-.02c-.39-.55-.69-1.23-.84-1.61l-.84.25c.09,1.54.13,3.31.13,5.41Z"/><path class="cls-1" d="m27.24,44.66c0,1.02-.02,2.11-.07,2.93l.84.25c.02-.06.05-.12.07-.18.15-.39.33-.83.59-1.27h0s.02-.02.02-.02l14.08-5.21c-.01-.32-.04-1.1-.04-2.08,0-1.1.02-2.19.07-2.93l-.82-.25c-.05.11-.09.22-.14.33-.2.47-.43,1.01-.7,1.44l-.02.04h-.04s-12.37-4.72-12.37-4.72h0c-.28-.45-.46-.93-.63-1.35l-.06-.14-.84.25c.04.83.07,1.4.07,2.35s-.02,1.73-.07,2.58l.84.29c.24-.65.54-1.4.96-2.1l.02-.03h.04s3.16,1.06,3.16,1.06v6.4h-.03s-3.23,1.08-3.23,1.08l-.02-.03c-.39-.61-.7-1.39-.89-1.94l-.84.27c.04.79.07,1.94.07,3.02Zm6.11-8.42l.07.02,7.64,2.67v.27h-.03s-7.67,2.69-7.67,2.69v-5.65Z"/><path class="cls-1" d="m42.83,67.94c-.05-.89-.07-1.58-.07-2.37,0-.84.02-1.58.07-2.46l-.84-.27c-.28.68-.63,1.32-1.07,1.97v.02s-.04,0-.04,0l-10.43.48v-.21h.02s12.35-8.15,12.35-8.15c-.04-.79-.07-1.2-.07-2.04s.02-1.67.06-2.21l-.84-.25c-.21.58-.5,1.17-.8,1.61l-.02.02h-12.34v-.02c-.33-.44-.59-1.09-.81-1.61l-.84.25c.04.82.07,1.57.07,2.15,0,1-.02,2.03-.07,2.84l.84.27c.27-.65.67-1.55,1.19-2.09h.01s.02-.02.02-.02l11.1-.47v.24l-.02.02-13.41,8.89.33,2.04h13.94v.03c.33.57.62,1.14.81,1.61l.84-.25Z"/><path class="cls-1" d="m27.18,79.99c0,4.9,3.14,7.83,8.39,7.83,2.59,0,4.43-.66,5.63-2.01,1.1-1.24,1.64-3.04,1.64-5.5v-6.8l-.84-.25c-.28.71-.55,1.26-.8,1.61v.02h-12.36v-.02c-.34-.46-.64-1.13-.82-1.61l-.84.25v6.49Zm14.52-2.5v2.14c0,3.74-2.46,5.56-7.52,5.56-3.89,0-5.86-1.63-5.86-4.84v-2.86h13.38Z"/><path class="cls-1" d="m36.06,98.61c1.01-2.48,1.96-3.41,3.51-3.41s2.44,1.09,2.44,3.07c0,.47-.04,1.2-.13,1.76v.03s-.03,0-.03,0l-3.19,1.16v.84c1.15.07,2.67.43,3.64.71l.23-.08c.4-1.28.58-3.27.58-4.69,0-3.16-1.74-5.28-4.34-5.28-1.84,0-3.36.73-4.79,4.27-1.09,2.73-1.91,3.56-3.53,3.56s-2.46-1.1-2.46-3.36c0-.51.06-1.31.2-1.95v-.03s.03,0,.03,0l3.19-1.16v-.84c-1.14-.07-2.64-.41-3.69-.71l-.23.08c-.42,1.16-.58,3.17-.58,4.66,0,3.63,1.62,5.8,4.34,5.8,2.2,0,3.5-1.21,4.82-4.45Z"/><path class="cls-1" d="m27.31,114.17c0,1.87-.04,3.85-.11,5.89l.18.09c.92-.1,2-.16,3.21-.16h.76v-.82l-2.95-1.37v-5.06h12.77v.02c.37.58.66,1.24.81,1.61l.84-.25c-.05-.9-.07-1.73-.07-2.69s.02-1.81.07-2.69l-.84-.25c-.17.42-.49,1.15-.82,1.61v.02h-12.31v-.02c-.39-.55-.69-1.23-.84-1.61l-.84.25c.09,1.54.13,3.31.13,5.41Z"/><path class="cls-1" d="m35.07,138.87c5.25,0,8.03-2.57,8.03-7.44,0-2.21-.8-4.08-2.33-5.39-1.47-1.27-3.49-1.94-5.84-1.94-5.25,0-8.03,2.57-8.03,7.42,0,2.22.8,4.09,2.33,5.41,1.47,1.27,3.49,1.94,5.84,1.94Zm-6.98-6.88c0-1.59.79-2.93,2.27-3.86,1.46-.91,3.52-1.39,5.97-1.39,3.62,0,5.61,1.5,5.61,4.24,0,1.59-.79,2.93-2.27,3.86-1.46.91-3.52,1.39-5.97,1.39-3.62,0-5.61-1.5-5.61-4.24Z"/><path class="cls-1" d="m41.16,156.19c.36.48.63.9.82,1.32l.84-.25c-.04-.82-.07-1.27-.07-2.24,0-.86.02-1.77.07-2.44l-.84-.29c-.2.66-.54,1.47-.84,2.05l-.02.04h-.04s-10.95-3.76-10.95-3.76v-.3h.03s10.98-3.87,10.98-3.87l.02.04c.31.52.59,1.33.82,2.06l.84-.25c-.04-.81-.07-1.97-.07-3.05s.02-2.11.07-2.91l-.84-.29c-.13.38-.38.88-.71,1.38h0s-.01.02-.01.02l-14.08,5.48v1.73l13.98,5.51h0Z"/><path class="cls-1" d="m42.97,194.18c-4,2.44-4.29,7.41-4.29,7.63h-1.64c0-.19.03-3.15,1.72-5.94.72-1.18,1.74-2.33,3.18-3.23.41-.26.86-.49,1.34-.7l.44-.19s.2-.07.3-.11c.1-.03.33-.11.33-.11l.14.87.45,2.8-.99.47c-.26-.44-.62-1.04-.97-1.49Z"/><path class="cls-1" d="m44.61,238.86c.01-.16.07-1.62-1.02-2.78-.81-.86-2-1.3-3.54-1.3-2.98,0-2.64-1.29-2.66-1.35l-2.36.45-2.36-.45c-.02.05.32,1.35-2.66,1.35-1.54,0-2.73.44-3.54,1.3-1.09,1.16-1.03,2.62-1.02,2.78h1.66s-.03-.94.54-1.53c.45-.47,1.36-.71,2.36-.71,3.3,0,4.56-1.39,5.02-2.17.46.79,1.72,2.17,5.02,2.17,1,0,1.91.24,2.36.71.57.59.54,1.53.54,1.53h1.66Z"/><rect class="cls-1" x="34.12" y="187.38" width="1.85" height="26.8"/><path class="cls-1" d="m31.83,241.4l.81,1.61h4.8l.81-1.61c-1.02.05-2.1.08-3.22.08-1.12,0-2.19-.03-3.21-.08Z"/><path class="cls-1" d="m27.07,224.24c.57.27,1.22.58,1.96.63,1.06.08,1.54-.14,2.41-.59l-.84-1.48c-.66.34-.93.43-1.43.39-.4-.03-.84-.24-1.31-.46-1.2-.57-3.21-1.52-4.8,1.7l1.66.82c.78-1.59,1.11-1.6,2.34-1.02Z"/><path class="cls-1" d="m29.54,245.57c1.06,2.17,1.17,4.55,1.06,5.95l1.65,1.19c.2-1.22.55-4.68-1.05-7.96l-1.66.81Z"/><path class="cls-1" d="m25.11,243.32c1.83,3.16,1.51,4.78,1.35,5.2l1.45,1.04c.35-.56,1.35-2.8-1.19-7.18l-1.6.93Z"/><rect class="cls-1" x="34.11" y="245.55" width="1.85" height="9.74"/><path class="cls-1" d="m27.11,194.2c4,2.44,4.29,7.41,4.29,7.63h1.64c0-.19-.03-3.15-1.72-5.94-.72-1.18-1.74-2.33-3.18-3.23-.41-.26-.86-.49-1.34-.7l-.44-.19s-.2-.07-.3-.11c-.1-.03-.33-.11-.33-.11l-.14.87-.45,2.8.99.47c.26-.44.62-1.04.97-1.49Z"/><path class="cls-1" d="m32.44,214.18h0s0,0,0,0v-3.83h-1.07s-.21,1.16-.65,2.04c-4.28.22-7.77,1.45-9.25,1.95l-1.07-4.08c1.28.65,2.76.94,4.22.71,1.82-.29,3.42-1.27,4.51-2.76s1.52-3.32,1.24-5.14c-.28-1.81-1.29-3.3-2.84-4.19-1.41-.82-3.21-1.11-5.06-.81l.37,1.27h0l.16.53c1.34-.17,2.61.05,3.6.62,1.17.67,1.86,1.8,1.98,3.23.08.97-.11,1.95-.57,2.8-.77,1.43-2.11,2.37-3.68,2.62-1.87.29-3.78-.51-4.89-2.05l-1.13-3.98c.57-.46,1.93-.8,1.93-.8l-.17-1.04h-4.32l4.58,15.13s4.61-2.23,12.11-2.22Z"/><path class="cls-1" d="m17.72,236.41c0,.48.28,1.01.94,1.37.87.47,2.1.12,2.86-.81,1.27-1.55.83-3.92-1.12-6.28,0,0-1.87-1.97-1.67-4.51.09-1.15.3-2.52.87-4.11l1.61.79c-.48,1.3-.62,2.39-.64,3.28-.05,2.02,1.09,3.2,1.18,3.3,3.09,3.73,2.64,6.94,1.19,8.71-.9,1.1-2.18,1.7-3.43,1.7-.61,0-1.21-.14-1.75-.44-1.56-.85-2.27-2.52-1.73-4.05.38-1.06,1.43-2.01,3-2.06l.68,1.48s-1.82-.08-1.99,1.4c0,0-.02.1-.02.23Z"/><path class="cls-1" d="m52.36,236.41c0,.48-.28,1.01-.94,1.37-.87.47-2.1.12-2.86-.81-1.27-1.55-.83-3.92,1.12-6.28,0,0,1.87-1.97,1.67-4.51-.09-1.15-.3-2.52-.87-4.11l-1.61.79c.48,1.3.62,2.39.64,3.28.05,2.02-1.09,3.2-1.18,3.3-3.09,3.73-2.64,6.94-1.19,8.71.9,1.1,2.18,1.7,3.43,1.7.61,0,1.21-.14,1.75-.44,1.56-.85,2.27-2.52,1.73-4.05-.38-1.06-1.43-2.01-3-2.06l-.68,1.48s1.82-.08,1.99,1.4c0,0,.02.1.02.23Z"/><path class="cls-1" d="m43.01,224.24c-.57.27-1.22.58-1.96.63-1.06.08-1.54-.14-2.41-.59l.84-1.48c.66.34.93.43,1.43.39.4-.03.84-.24,1.31-.46,1.2-.57,3.21-1.52,4.8,1.7l-1.66.82c-.78-1.59-1.11-1.6-2.34-1.02Z"/><path class="cls-1" d="m40.54,245.57c-1.06,2.17-1.17,4.55-1.06,5.95l-1.65,1.19c-.2-1.22-.55-4.68,1.05-7.96l1.66.81Z"/><path class="cls-1" d="m44.97,243.32c-1.83,3.16-1.51,4.78-1.35,5.2l-1.45,1.04c-.35-.56-1.35-2.8,1.19-7.18l1.6.93Z"/><path class="cls-1" d="m37.64,214.18h0s0,0,0,0v-1.85s0-1.98,0-1.98h1.07s.21,1.16.65,2.04c4.28.22,7.77,1.45,9.25,1.95l1.07-4.08c-1.28.65-2.76.94-4.22.71-1.82-.29-3.42-1.27-4.51-2.76s-1.52-3.32-1.24-5.14c.28-1.81,1.29-3.3,2.84-4.19,1.41-.82,3.21-1.11,5.06-.81l-.37,1.27h0l-.16.53c-1.34-.17-2.61.05-3.6.62-1.17.67-1.86,1.8-1.98,3.23-.08.97.11,1.95.57,2.8.77,1.43,2.11,2.37,3.68,2.62,1.87.29,3.78-.51,4.89-2.05l1.13-3.98c-.57-.46-1.93-.8-1.93-.8l.17-1.04h4.32s-4.58,15.13-4.58,15.13c0,0-4.61-2.23-12.11-2.22Z"/><polygon class="cls-1" points="35.05 238.39 33.3 237.39 29.5 239.68 30.56 240.62 33.22 239.36 35.05 240.05 36.87 239.36 39.53 240.62 40.59 239.67 36.8 237.39 35.05 238.39"/><path class="cls-1" d="m34.15,222.88c-.05-.8-.11-1.76-.58-2.61-.81-1.45-2.66-3.69-4.46-2.84-4.25,1.99-5.91.41-5.98.35l-1.34,1.27c.1.11,2.55,2.66,8.1.06.27-.13,1.55.67,2.06,2.06.19.53.31,1.16.35,1.8l.16,4.66h0l.09,2.72-1.63.76.35,1.17,3.19-.55-.3-8.85Z"/><path class="cls-1" d="m35.93,222.88c.05-.8.11-1.76.58-2.61.81-1.45,2.66-3.69,4.46-2.84,4.25,1.99,5.91.41,5.98.35l1.34,1.27c-.1.11-2.55,2.66-8.1.06-.27-.13-1.55.67-2.06,2.06-.19.53-.31,1.16-.35,1.8l-.16,4.66h0l-.09,2.72,1.63.76-.35,1.17-3.19-.55.3-8.85Z"/></svg>